<svg xmlns="http://www.w3.org/2000/svg" viewBox="0 0 1440 320">
    <path fill="#9d427f"
          d="M0,128L10,133.3C20,139,40,149,60,154.7C80,160,100,160,120,149.3C140,139,160,117,180,122.7C200,128,220,160,240,176C260,192,280,192,300,165.3C320,139,340,85,360,85.3C380,85,400,139,420,154.7C440,171,460,149,480,149.3C500,149,520,171,540,192C560,213,580,235,600,229.3C620,224,640,192,660,160C680,128,700,96,720,112C740,128,760,192,780,186.7C800,181,820,107,840,96C860,85,880,139,900,170.7C920,203,940,213,960,213.3C980,213,1000,203,1020,197.3C1040,192,1060,192,1080,160C1100,128,1120,64,1140,53.3C1160,43,1180,85,1200,96C1220,107,1240,85,1260,80C1280,75,1300,85,1320,101.3C1340,117,1360,139,1380,154.7C1400,171,1420,181,1430,186.7L1440,192L1440,0L1430,0C1420,0,1400,0,1380,0C1360,0,1340,0,1320,0C1300,0,1280,0,1260,0C1240,0,1220,0,1200,0C1180,0,1160,0,1140,0C1120,0,1100,0,1080,0C1060,0,1040,0,1020,0C1000,0,980,0,960,0C940,0,920,0,900,0C880,0,860,0,840,0C820,0,800,0,780,0C760,0,740,0,720,0C700,0,680,0,660,0C640,0,620,0,600,0C580,0,560,0,540,0C520,0,500,0,480,0C460,0,440,0,420,0C400,0,380,0,360,0C340,0,320,0,300,0C280,0,260,0,240,0C220,0,200,0,180,0C160,0,140,0,120,0C100,0,80,0,60,0C40,0,20,0,10,0L0,0Z"/>
</svg>